<svg xmlns="http://www.w3.org/2000/svg" width="106" height="168" viewBox="0 0 106 168"><title>icon_top</title><g id="レイヤー_2" data-name="レイヤー 2"><g id="ガーランド"><g id="正円"><path d="M105.9,57.577c-1.811,29.988-26.963,52.872-56.177,51.114S-1.708,81.2.1,51.209,27.066-1.664,56.28.095,107.708,27.589,105.9,57.577Z" fill="#e0326c"/><path d="M47.726,104.322l-6.8,14.764c10.5,1.6,16.446,1.338,25.305-.572l-6.61-14.725Z" fill="#e0326c"/><path d="M69.026,168C47.812,149.6,51,115.455,51.144,114.01l4.887.509c-.033.328-3.053,33.031,16.191,49.72Z" fill="#e0326c"/><path d="M53.231,29.854a.529.529,0,0,0-1,0l-25,43.3c-.275.476-.05.866.5.866h50c.55,0,.775-.39.5-.866Z" fill="#ffcce1"/></g></g></g></svg>